<?xml version="1.0" encoding="UTF-8" standalone="no"?>
<!-- Created with Inkscape (http://www.inkscape.org/) -->

<svg
   version="1.1"
   id="svg7232"
   width="800"
   height="800"
   viewBox="0 0 800 800"
   sodipodi:docname="ninja-warrior-vector-pdv.svg"
   inkscape:version="1.2 (dc2aedaf03, 2022-05-15)"
   xmlns:inkscape="http://www.inkscape.org/namespaces/inkscape"
   xmlns:sodipodi="http://sodipodi.sourceforge.net/DTD/sodipodi-0.dtd"
   xmlns="http://www.w3.org/2000/svg"
   xmlns:svg="http://www.w3.org/2000/svg">
  <defs
     id="defs7236">
    <clipPath
       clipPathUnits="userSpaceOnUse"
       id="clipPath7248">
      <path
         d="M 0,600 H 600 V 0 H 0 Z"
         id="path7246" />
    </clipPath>
  </defs>
  <sodipodi:namedview
     id="namedview7234"
     pagecolor="#ffffff"
     bordercolor="#000000"
     borderopacity="0.25"
     inkscape:showpageshadow="2"
     inkscape:pageopacity="0.0"
     inkscape:pagecheckerboard="0"
     inkscape:deskcolor="#d1d1d1"
     showgrid="false"
     inkscape:zoom="1.04625"
     inkscape:cx="400"
     inkscape:cy="400.4779"
     inkscape:window-width="1920"
     inkscape:window-height="1017"
     inkscape:window-x="-8"
     inkscape:window-y="-8"
     inkscape:window-maximized="1"
     inkscape:current-layer="g7240">
    <inkscape:page
       x="0"
       y="0"
       id="page7238"
       width="800"
       height="800" />
  </sodipodi:namedview>
  <g
     id="g7240"
     inkscape:groupmode="layer"
     inkscape:label="Page 1"
     transform="matrix(1.3333333,0,0,-1.3333333,0,800)">
    <g
       id="g7242">
      <g
         id="g7244"
         clip-path="url(#clipPath7248)">
        <g
           id="g7250"
           transform="translate(267.5918,376.5884)">
          <path
             d="M 0,0 C 0.062,-0.051 0.128,-0.096 0.189,-0.147 0.128,-0.096 0.062,-0.05 0,0 m -1.241,0.941 c -0.157,0.111 -0.32,0.217 -0.48,0.324 0.16,-0.107 0.323,-0.213 0.48,-0.324 m 133.988,-99.746 1.457,-1.278 c 23.19,-20.382 43.761,-37.752 61.567,-51.991 11.651,-1.822 23.482,-3.63 36.508,-5.645 -14.578,17.996 -28.082,34.672 -41.594,51.341 -2.771,3.42 -5.192,7.279 -8.525,10.024 -1.738,1.431 -5.264,1.609 -7.725,1.105 -14.459,-2.972 -27.875,0.41 -37.88,8.073 -1.281,-3.912 -2.674,-7.711 -4.17,-11.309 0.12,-0.106 0.242,-0.214 0.362,-0.32 m -9.133,-8.74 c 0.032,0.099 0.037,0.155 -0.006,0.137 -0.024,-0.037 -0.043,-0.071 -0.066,-0.107 0.023,-0.01 0.048,-0.02 0.072,-0.03 M 20.116,-189.55 c 8.757,-22.528 17.259,-45.155 25.896,-67.729 0.622,-1.626 1.647,-3.097 3.028,-5.641 9.499,24.88 18.42,48.605 27.687,72.194 1.744,4.441 1.464,7.097 -2.108,10.677 -4.588,4.597 -7.977,9.906 -10.151,15.568 -6.349,-1.476 -12.852,-2.227 -19.443,-2.227 -4.323,0 -8.601,0.319 -12.817,0.95 -2.3,-5.394 -5.731,-10.479 -10.278,-14.994 -2.946,-2.926 -3.239,-5.133 -1.814,-8.798 m -155.121,31.797 c 10.821,1.704 21.373,3.354 31.771,4.993 17.545,14 37.798,31.069 60.63,51.098 -1.488,3.166 -2.68,6.327 -4.093,10.006 -9.116,-4.674 -19.766,-5.978 -30.675,-3.285 -0.253,0.063 -0.499,0.118 -0.739,0.168 -7.405,-9.107 -12.767,-15.34 -12.899,-15.493 l -0.818,-0.948 -4.613,1.103 c -6.732,-8.326 -13.521,-16.607 -20.262,-24.926 -5.792,-7.147 -11.545,-14.326 -18.302,-22.716 M 174.202,-8.105 c 2.589,-0.572 6.843,-0.301 8.217,1.341 16.451,19.65 32.503,39.635 49.953,61.124 C 215.12,51.64 198.651,49.083 182.485,46.485 169.312,33.28 154.983,19.034 139.996,4.349 l 1.982,-17.167 c 9.395,5.216 20.744,7.252 32.224,4.713 M 67.62,111.016 c -6.066,15.811 -12.172,31.606 -18.527,48.096 -1.061,-1.352 -1.624,-1.808 -1.85,-2.394 -8.782,-22.776 -17.62,-45.532 -26.126,-68.411 7.22,1.935 14.641,2.922 22.225,2.922 11.856,0 23.495,-2.487 34.438,-7.229 -0.16,0.945 -0.491,1.958 -0.986,3.096 -3.404,7.823 -6.115,15.946 -9.174,23.92 M 2.185,-89.941 c 0.085,-0.069 0.18,-0.132 0.263,-0.202 -0.081,0.068 -0.167,0.134 -0.249,0.201 -0.006,0 -0.01,10e-4 -0.014,10e-4 M -103.732,49.501 c 4.6,-0.727 9.203,-1.448 13.802,-2.174 11.427,-11.459 23.739,-23.718 36.608,-36.379 -1.957,-6.113 -3.253,-12.357 -4.084,-19.041 -6.457,1.361 -13.317,1.335 -20.187,-0.212 -2.354,-0.529 -6.248,-0.132 -7.537,1.414 -16.425,19.692 -32.504,39.673 -49.934,61.137 11.584,-1.749 21.468,-3.185 31.332,-4.745"
             style="fill:#bcbec0;fill-opacity:1;fill-rule:nonzero;stroke:none"
             id="path7252" />
        </g>
        <g
           id="g7254"
           transform="translate(384.1123,371.3994)">
          <path
             d="m 0,0 c -1.314,-2.906 -3.724,-5.246 -6.52,-6.771 -1.403,-0.773 -2.915,-1.354 -4.536,-1.688 -0.37,-0.08 -0.747,-0.143 -1.133,-0.187 l 2.798,-1.063 -1.773,-0.456 c 0.07,-0.119 0.141,-0.237 0.207,-0.356 0.808,-1.445 1.358,-2.969 1.693,-4.536 0.676,-3.111 0.484,-6.464 -0.854,-9.36 -0.528,-1.153 -1.237,-2.208 -2.061,-3.142 0.799,0.392 1.589,0.791 2.371,1.204 5.518,9.821 9.285,18.603 10.081,27.009 C 0.186,0.434 0.098,0.216 0,0 m -94.168,-36.109 c 0.994,1.377 1.685,2.964 2.204,4.609 0.515,1.65 0.874,3.359 1.15,5.09 0.307,1.959 0.518,3.939 0.685,5.935 -0.697,-1.623 -1.509,-3.196 -2.47,-4.679 -1.713,-2.655 -3.906,-5.013 -6.498,-6.756 l -0.974,-0.643 -1.032,-0.547 -0.512,-0.27 c -0.174,-0.084 -0.359,-0.151 -0.534,-0.226 l -1.073,-0.437 c -1.465,-0.485 -2.968,-0.808 -4.484,-0.858 1.495,0.26 2.907,0.782 4.234,1.435 l 0.962,0.56 c 0.157,0.094 0.321,0.179 0.474,0.281 l 0.449,0.325 0.893,0.644 0.825,0.729 c 2.179,1.956 3.865,4.378 5.077,6.992 1.218,2.618 1.973,5.422 2.441,8.257 l 0.303,2.136 0.008,0.134 c -0.4,-1.011 -0.848,-2.002 -1.342,-2.971 -1.351,-2.57 -3.058,-4.943 -5.079,-6.975 -2.02,-2.031 -4.36,-3.708 -6.895,-4.913 -2.524,-1.22 -5.286,-1.897 -8.011,-1.985 2.684,0.506 5.203,1.572 7.391,3.079 2.194,1.496 4.084,3.364 5.608,5.46 1.525,2.1 2.694,4.414 3.523,6.833 0.187,0.567 0.351,1.14 0.502,1.714 0.076,0.291 0.14,0.586 0.208,0.879 0.054,0.228 0.109,0.457 0.157,0.687 -0.156,0.03 -0.313,0.057 -0.466,0.091 l -0.459,0.103 0.009,0.029 c -0.007,0.001 -0.014,0.001 -0.022,0.001 -0.597,-1.697 -1.327,-3.341 -2.194,-4.907 -0.024,-0.043 -0.046,-0.084 -0.069,-0.125 -0.286,-0.513 -0.582,-1.019 -0.898,-1.512 -2.012,-3.149 -4.647,-5.887 -7.72,-7.915 -3.063,-2.046 -6.565,-3.323 -10.108,-3.836 -3.55,-0.519 -7.136,-0.276 -10.535,0.525 3.474,-0.389 6.988,-0.189 10.28,0.706 3.289,0.89 6.346,2.463 8.862,4.623 1.872,1.591 3.451,3.472 4.72,5.532 -4.255,-3.989 -10.056,-5.484 -15.706,-5.484 -3.028,0 -6.012,0.428 -8.69,1.132 -4.616,1.212 -8.439,4.275 -9.828,7.727 -0.538,-1.791 -0.637,-3.739 -0.119,-5.578 0.527,-1.922 1.745,-3.674 3.345,-5.055 1.609,-1.379 3.548,-2.42 5.576,-3.221 -2.119,0.512 -4.219,1.274 -6.123,2.488 -1.888,1.215 -3.562,2.965 -4.517,5.163 -0.125,0.283 -0.236,0.571 -0.338,0.864 0.022,-1.183 0.202,-2.363 0.586,-3.495 0.435,-1.289 1.123,-2.505 2.014,-3.58 0.889,-1.079 1.967,-2.018 3.15,-2.832 2.407,-1.577 5.178,-2.651 8.03,-3.372 -0.873,0.127 -1.744,0.291 -2.612,0.489 9.277,-2.698 20.228,-4.828 31.969,-6.054 l 0.309,0.119 0.566,0.306 c 0.388,0.18 0.714,0.467 1.065,0.702 0.65,0.545 1.25,1.146 1.733,1.847 m -31.94,51.456 c 1.273,-0.253 2.537,-0.632 3.752,-1.148 0.544,-0.237 1.076,-0.506 1.599,-0.792 0.16,-0.088 0.318,-0.182 0.476,-0.274 0.371,-0.216 0.734,-0.442 1.092,-0.679 0.161,-0.107 0.322,-0.213 0.48,-0.324 0.424,-0.299 0.838,-0.612 1.241,-0.941 0.062,-0.051 0.128,-0.096 0.19,-0.147 0.004,-0.003 0.007,-0.006 0.009,-0.009 -0.05,0.099 -0.099,0.2 -0.156,0.298 -0.408,0.733 -0.974,1.432 -1.737,2.143 -1.494,1.403 -3.769,2.664 -6.405,3.552 -2.879,0.947 -5.762,1.396 -8.346,1.297 -0.361,-0.017 -0.697,-0.043 -1.018,-0.077 l -1.709,-0.181 c -0.002,-0.001 -0.004,-0.002 -0.006,-0.003 -0.209,-0.131 -0.418,-0.281 -0.625,-0.437 -0.041,-0.03 -0.084,-0.055 -0.125,-0.087 -0.25,-0.191 -0.496,-0.398 -0.733,-0.617 -0.953,-0.878 -1.829,-1.931 -2.606,-3.067 -1.554,-2.277 -2.733,-4.9 -3.343,-7.643 -0.601,-2.73 -0.626,-5.661 0.498,-8.263 0.298,-0.69 0.681,-1.346 1.138,-1.957 2.974,-0.555 5.035,0.444 5.296,0.836 0.306,0.457 -4.189,2.819 -4.486,3.125 0.007,0.304 9.346,0.904 9.346,0.904 0,0 -0.285,1.562 -3.22,2.84 2.366,0.508 5.692,0.136 9.764,-0.401 0.719,-0.094 0.987,2.298 1.688,2.173 1.946,-0.348 4.789,-1.566 7.171,-2.81 0.083,-0.013 0.167,-0.024 0.25,-0.037 -0.693,0.57 -1.415,1.115 -2.181,1.608 -1.916,1.228 -4.03,2.205 -6.271,2.861 -2.239,0.657 -4.6,1.03 -6.992,1.078 -2.393,0.059 -4.819,-0.162 -7.215,-0.623 2.295,0.828 4.689,1.437 7.154,1.765 2.463,0.336 4.998,0.345 7.521,0.019 1.997,-0.259 3.979,-0.753 5.902,-1.465 -1.306,1.676 -2.876,3.153 -4.693,4.304 -0.986,0.612 -2.042,1.118 -3.15,1.524 -1.104,0.416 -2.273,0.66 -3.461,0.848 -2.382,0.313 -4.865,0.189 -7.296,-0.282 2.33,0.836 4.808,1.363 7.364,1.423 1.272,-0.002 2.569,-0.069 3.843,-0.334 m -7.729,13.184 c -0.161,-0.194 -0.311,-0.396 -0.469,-0.594 -0.365,-0.463 -0.718,-0.934 -1.056,-1.417 -0.073,-0.103 -0.139,-0.207 -0.209,-0.31 l 0.007,0.004 c 1.543,0.831 3.263,1.486 5.111,1.946 2.098,0.52 4.286,0.771 6.509,0.746 2.222,-0.018 4.47,-0.336 6.679,-0.946 1.48,-0.413 2.903,-0.963 4.25,-1.638 l -1.684,3.127 c -0.006,0.004 -0.012,0.008 -0.018,0.012 -0.986,0.612 -2.042,1.118 -3.149,1.523 -1.106,0.417 -2.276,0.661 -3.462,0.848 -2.383,0.314 -4.864,0.189 -7.297,-0.281 1.52,0.546 3.108,0.956 4.735,1.195 l -5.618,0.012 c -0.934,-0.735 -1.823,-1.523 -2.654,-2.363 -0.587,-0.597 -1.142,-1.223 -1.675,-1.864 m 123.828,-32.54 c 0.456,0.611 0.839,1.267 1.137,1.957 1.124,2.602 1.099,5.533 0.498,8.263 -0.609,2.743 -1.789,5.366 -3.343,7.643 -0.047,0.07 -0.098,0.136 -0.146,0.205 -0.742,1.056 -1.566,2.038 -2.46,2.862 -0.869,0.799 -1.835,1.432 -2.688,1.747 -0.346,0.037 -0.696,0.062 -1.047,0.079 -2.87,0.11 -5.845,-0.447 -8.494,-1.319 -2.648,-0.892 -4.998,-2.178 -6.558,-3.643 -0.784,-0.73 -1.387,-1.47 -1.814,-2.239 -0.1,-0.174 -0.193,-0.351 -0.28,-0.53 1.551,1.297 3.27,2.386 5.109,3.183 1.215,0.516 2.478,0.895 3.751,1.148 1.275,0.265 2.571,0.332 3.843,0.334 2.556,-0.06 5.034,-0.587 7.365,-1.423 -2.432,0.471 -4.914,0.595 -7.298,0.282 -1.187,-0.188 -2.356,-0.432 -3.462,-0.848 -1.106,-0.406 -2.163,-0.912 -3.148,-1.524 -0.961,-0.608 -1.852,-1.309 -2.673,-2.08 -0.731,-0.687 -1.404,-1.434 -2.02,-2.224 1.923,0.712 3.905,1.206 5.902,1.465 2.523,0.326 5.059,0.317 7.521,-0.019 2.464,-0.328 4.859,-0.937 7.154,-1.765 -2.396,0.461 -4.821,0.682 -7.215,0.623 -2.394,-0.048 -4.753,-0.421 -6.992,-1.078 -2.24,-0.656 -4.356,-1.633 -6.271,-2.861 -0.765,-0.493 -1.488,-1.038 -2.181,-1.608 0.083,0.013 0.167,0.024 0.25,0.037 2.38,1.244 5.225,2.462 7.171,2.81 0.701,0.125 0.968,-2.267 1.688,-2.173 4.07,0.537 7.398,0.909 9.765,0.401 -2.935,-1.278 -3.221,-2.84 -3.221,-2.84 0,0 9.339,-0.6 9.347,-0.904 -0.298,-0.306 -4.793,-2.668 -4.488,-3.125 0.261,-0.392 2.323,-1.391 5.298,-0.836 m -140.57,4.845 c 1.378,-2.357 3.613,-4.103 6.092,-5.14 0.519,-0.22 1.054,-0.401 1.593,-0.555 -0.013,0.014 -0.026,0.029 -0.039,0.043 -0.672,0.641 -1.269,1.373 -1.759,2.179 -0.831,1.353 -1.37,2.885 -1.657,4.45 -0.289,1.568 -0.34,3.172 -0.218,4.756 0.252,3.173 1.14,6.272 2.564,9.171 0.253,0.51 0.529,1.013 0.82,1.511 0.802,2.713 2.027,5.201 3.517,7.487 1.735,2.654 3.866,5.012 6.27,7.008 0.429,0.353 0.87,0.69 1.315,1.018 l -10.585,0.024 c -4.136,-4.127 -7.232,-11.414 -9.01,-19.932 0.657,1.523 1.45,2.977 2.334,4.359 -1.322,-2.629 -2.324,-5.427 -2.706,-8.277 -0.159,-1.428 -0.154,-2.859 0.079,-4.236 0.232,-1.377 0.698,-2.693 1.39,-3.866 m 91.325,-37.746 c -1.281,1.396 -2.234,3.044 -2.996,4.737 -0.757,1.698 -1.344,3.454 -1.843,5.219 -0.988,3.535 -1.659,7.112 -2.306,10.655 -0.276,1.522 -0.546,3.039 -0.824,4.547 -5.391,3.374 -11.611,2.289 -13.494,1.843 -2.966,-0.702 -4.374,-1.799 -4.561,-2.191 l -0.014,0.007 c -0.255,-1.396 -0.505,-2.798 -0.762,-4.206 -0.646,-3.543 -1.317,-7.12 -2.304,-10.655 -0.498,-1.765 -1.086,-3.521 -1.844,-5.219 -0.762,-1.693 -1.715,-3.341 -2.996,-4.737 -0.625,-0.707 -1.376,-1.307 -2.164,-1.818 -0.321,-0.168 -0.623,-0.361 -0.95,-0.511 2.711,-0.263 5.461,-0.478 8.241,-0.64 h 24.184 c 2.594,0.156 5.184,0.365 7.767,0.631 -0.333,0.15 -0.643,0.348 -0.969,0.52 -0.789,0.511 -1.539,1.111 -2.165,1.818 m 26.547,19.637 c -1.757,0 -3.455,0.117 -5.005,0.343 -6.987,1.016 -11.187,4.071 -11.487,8.262 -0.37,-0.197 -0.741,-0.391 -1.12,-0.571 -0.454,-1.211 0.331,-3.204 0.667,-3.848 5.272,-9.327 17.146,-10.018 25.71,-7.77 5.107,1.341 8.355,4.894 8.924,7.711 0.084,0.412 0.126,0.888 0.073,1.388 -0.043,0.058 -0.083,0.119 -0.127,0.175 -3.287,-3.96 -10.889,-5.69 -17.635,-5.69 m -36.621,9.545 c -0.263,0.343 -0.5,0.703 -0.696,1.076 -0.625,1.235 -0.895,2.521 -0.834,3.672 0.029,1.154 0.312,2.189 0.684,3.124 0.394,0.934 0.876,1.779 1.468,2.546 0.195,-0.951 0.381,-1.852 0.662,-2.68 0.261,-0.824 0.617,-1.57 1.021,-2.142 0.417,-0.577 0.893,-0.941 1.339,-1.107 0.05,-0.016 0.097,-0.025 0.145,-0.038 -0.164,0.255 -0.326,0.509 -0.481,0.768 -0.784,1.311 -1.463,2.665 -2.037,4.062 -0.16,0.388 -0.309,0.781 -0.452,1.177 -0.881,2.442 -1.43,5.004 -1.529,7.585 -0.067,1.498 0.035,2.999 0.308,4.459 0.273,1.457 0.668,2.886 1.263,4.222 0.58,1.339 1.274,2.616 2.114,3.781 0.803,1.189 1.765,2.247 2.737,3.27 -1.659,-2.287 -2.984,-4.803 -3.661,-7.46 -0.368,-1.318 -0.527,-2.676 -0.578,-4.016 -0.048,-1.342 0.062,-2.68 0.317,-3.985 0.432,-2.265 1.251,-4.434 2.343,-6.446 -0.627,1.642 -1.058,3.351 -1.245,5.077 -0.185,1.541 -0.143,3.09 0.033,4.598 0.073,0.758 0.232,1.499 0.378,2.237 0.079,0.367 0.19,0.728 0.283,1.09 0.094,0.363 0.194,0.722 0.324,1.073 0.748,2.25 1.786,4.357 3.007,6.329 0.108,1.092 0.273,2.179 0.527,3.25 0.397,1.677 1.004,3.319 1.883,4.807 l -15.725,0.035 1.215,-39.333 c 1.625,-0.112 3.397,-0.412 5.187,-1.031 m -44.339,39.22 c 2.421,-1.05 4.639,-2.604 6.529,-4.474 0.671,-0.66 1.3,-1.359 1.895,-2.09 0.625,1.47 0.872,3.034 0.564,4.661 -0.852,0.926 -1.783,1.778 -2.801,2.524 -0.278,0.209 -0.565,0.407 -0.857,0.597 l -9.623,0.022 c 0.182,-0.03 0.361,-0.055 0.542,-0.092 1.274,-0.254 2.536,-0.632 3.751,-1.148 m 100.881,-6.754 c 1.49,-2.286 2.716,-4.774 3.516,-7.487 0.29,-0.498 0.568,-1.001 0.822,-1.511 1.423,-2.899 2.311,-5.998 2.563,-9.171 0.121,-1.584 0.071,-3.188 -0.218,-4.756 -0.288,-1.565 -0.826,-3.097 -1.656,-4.45 -0.491,-0.806 -1.088,-1.538 -1.76,-2.179 -0.045,-0.047 -0.089,-0.097 -0.133,-0.142 0.655,0.168 1.304,0.387 1.933,0.654 2.479,1.037 4.714,2.783 6.091,5.14 0.691,1.173 1.16,2.489 1.391,3.866 0.232,1.377 0.237,2.808 0.079,4.236 -0.383,2.85 -1.385,5.648 -2.706,8.277 0.462,-0.723 0.896,-1.466 1.303,-2.227 -2.138,5.753 -6.087,11.512 -12.27,17.508 l -6.192,0.014 c 0.326,-0.248 0.649,-0.503 0.965,-0.764 2.406,-1.996 4.537,-4.354 6.272,-7.008 m -24.967,4.71 -2.231,-4.143 c 1.743,1.011 3.56,1.749 5.376,2.255 2.196,0.607 4.398,0.913 6.571,0.93 2.173,0.025 4.317,-0.216 6.403,-0.733 1.724,-0.429 3.414,-1.048 5.013,-1.908 -1.065,1.622 -2.294,3.149 -3.669,4.546 -0.74,0.748 -1.526,1.456 -2.349,2.121 l -4.665,0.011 c 1.189,-0.242 2.351,-0.572 3.478,-0.976 -2.433,0.47 -4.914,0.595 -7.298,0.281 -1.188,-0.187 -2.356,-0.431 -3.462,-0.848 -1.106,-0.405 -2.163,-0.911 -3.148,-1.523 -0.007,-0.004 -0.013,-0.008 -0.019,-0.013 M -88.487,9.658 c 0.355,1.311 0.517,2.681 0.558,4.065 0.035,0.694 -0.013,1.389 -0.049,2.09 -0.022,0.35 -0.078,0.697 -0.115,1.047 -0.037,0.351 -0.082,0.702 -0.157,1.048 -0.349,1.964 -0.942,3.904 -1.71,5.79 0.027,-0.415 0.05,-0.83 0.062,-1.245 0.026,-0.962 0.008,-1.921 -0.044,-2.878 0.996,-3.498 1.211,-7.48 1.063,-11.191 0.146,0.419 0.278,0.843 0.392,1.274 m 43.172,17.36 c 1.892,1.87 4.109,3.424 6.53,4.474 1.08,0.459 2.199,0.803 3.329,1.053 l -8.876,0.02 c -0.216,-0.147 -0.432,-0.295 -0.641,-0.452 -1.017,-0.746 -1.948,-1.598 -2.8,-2.524 -0.308,-1.627 -0.061,-3.191 0.564,-4.661 0.595,0.731 1.225,1.43 1.894,2.09 m -83.195,-47.875 c 8.564,-2.25 20.439,-1.557 25.725,7.797 0.345,0.662 1.216,2.887 0.543,4.057 -0.193,0.335 -0.529,0.58 -0.993,0.737 -0.054,-4.397 -4.296,-7.615 -11.506,-8.664 -1.549,-0.226 -3.246,-0.343 -5.004,-0.343 -6.656,0 -14.147,1.684 -17.502,5.535 -0.086,-0.115 -0.173,-0.227 -0.253,-0.349 -0.01,-0.016 -0.021,-0.034 -0.03,-0.05 -0.006,-0.36 0.033,-0.702 0.095,-1.009 0.57,-2.817 3.818,-6.372 8.925,-7.711 m 28.759,49.732 c 0.939,-1.031 1.809,-2.125 2.607,-3.272 0.111,-0.162 0.218,-0.325 0.327,-0.488 0.011,0.46 -0.004,0.902 -0.043,1.325 -0.731,2.113 -1.682,4.149 -2.98,5.939 -0.077,0.106 -0.16,0.208 -0.24,0.313 l -3.993,0.009 c 1.58,-1.103 3.024,-2.405 4.322,-3.826 m 9.714,-4.331 c 1.222,-1.972 2.259,-4.079 3.007,-6.329 0.131,-0.351 0.23,-0.71 0.323,-1.073 0.095,-0.362 0.205,-0.723 0.284,-1.09 0.147,-0.738 0.306,-1.479 0.378,-2.237 0.176,-1.508 0.218,-3.057 0.034,-4.598 -0.188,-1.726 -0.619,-3.435 -1.246,-5.078 1.092,2.013 1.91,4.182 2.342,6.447 0.256,1.305 0.367,2.643 0.318,3.985 -0.051,1.34 -0.211,2.698 -0.578,4.016 -0.678,2.657 -2.002,5.173 -3.661,7.46 0.972,-1.023 1.935,-2.081 2.737,-3.27 0.84,-1.165 1.534,-2.442 2.114,-3.781 0.595,-1.336 0.989,-2.765 1.263,-4.222 0.273,-1.46 0.373,-2.961 0.308,-4.459 -0.117,-2.999 -0.835,-5.974 -1.982,-8.762 -0.573,-1.397 -1.252,-2.751 -2.037,-4.062 -0.391,-0.657 -0.811,-1.301 -1.278,-1.939 -0.165,-0.228 -0.341,-0.455 -0.526,-0.684 l 0.029,-0.006 0.098,0.089 -0.011,-0.103 4.085,-0.686 c -0.188,-0.819 -0.363,-1.646 -0.533,-2.478 0.927,0.423 2.013,0.793 3.22,1.077 0.803,0.19 2.293,0.481 4.173,0.569 l 1.214,39.307 -16.528,0.037 c 0.903,-1.507 1.522,-3.175 1.926,-4.88 0.254,-1.071 0.418,-2.158 0.527,-3.25 m 30.256,0.632 c 0.212,0.507 0.431,1.011 0.666,1.51 0.985,2.083 2.167,4.102 3.643,5.904 l -3.12,0.008 c -0.065,-0.131 -0.13,-0.261 -0.19,-0.394 -1.062,-2.353 -1.413,-4.943 -1.373,-7.526 0.12,0.169 0.245,0.335 0.374,0.498 m -32.889,0 c 0.128,-0.163 0.253,-0.329 0.374,-0.498 0.039,2.583 -0.312,5.173 -1.374,7.526 -0.072,0.16 -0.149,0.317 -0.229,0.474 l -3.159,0.007 c 1.513,-1.827 2.719,-3.88 3.721,-5.999 0.234,-0.499 0.454,-1.003 0.667,-1.51 m -46.722,-53.417 c -1.103,1.084 -2.037,2.382 -2.696,3.824 -1.338,2.896 -1.53,6.249 -0.854,9.36 0.336,1.567 0.884,3.091 1.692,4.536 0.056,0.101 0.117,0.201 0.176,0.3 l -1.988,0.512 2.863,1.088 c -0.322,0.043 -0.64,0.096 -0.952,0.162 -1.62,0.334 -3.133,0.915 -4.536,1.688 -2.796,1.525 -5.205,3.865 -6.519,6.771 -0.413,0.905 -0.712,1.854 -0.902,2.816 -0.745,-9.134 -0.073,-18.768 2.283,-27.007 4.251,-2.754 10.097,-5.36 17.103,-7.637 -0.67,0.266 -1.328,0.562 -1.976,0.896 -1.325,0.723 -2.588,1.604 -3.694,2.691 m 83.758,53.356 c 0.109,0.163 0.215,0.326 0.325,0.488 0.8,1.147 1.668,2.241 2.608,3.272 1.249,1.368 2.633,2.625 4.142,3.7 l -3.896,0.008 c -0.052,-0.068 -0.107,-0.134 -0.157,-0.204 -1.298,-1.79 -2.249,-3.826 -2.979,-5.939 -0.04,-0.423 -0.055,-0.865 -0.043,-1.325 m -6.858,-1.417 c -0.768,-1.886 -1.361,-3.826 -1.71,-5.79 -0.075,-0.346 -0.119,-0.697 -0.157,-1.048 -0.039,-0.35 -0.093,-0.697 -0.117,-1.047 -0.034,-0.701 -0.083,-1.396 -0.047,-2.09 0.041,-1.384 0.203,-2.754 0.559,-4.065 0.112,-0.431 0.246,-0.855 0.391,-1.274 -0.148,3.711 0.067,7.693 1.064,11.191 -0.053,0.957 -0.072,1.916 -0.045,2.878 0.012,0.415 0.033,0.83 0.062,1.245 m 50.678,-47.432 c -0.436,-1.289 -1.125,-2.505 -2.014,-3.58 -0.577,-0.7 -1.24,-1.336 -1.954,-1.922 -11.831,-5.196 -25.172,-8.321 -38.826,-9.849 l -0.312,0.121 -0.566,0.306 c -0.388,0.18 -0.714,0.467 -1.063,0.702 -0.652,0.545 -1.251,1.146 -1.735,1.847 -0.994,1.377 -1.684,2.964 -2.204,4.609 -0.515,1.65 -0.873,3.359 -1.15,5.09 -0.49,3.128 -0.738,6.312 -0.949,9.524 0.93,-2.897 2.15,-5.714 3.805,-8.268 1.713,-2.655 3.907,-5.013 6.5,-6.756 l 0.973,-0.643 1.032,-0.547 0.512,-0.27 c 0.174,-0.084 0.358,-0.151 0.535,-0.226 l 1.072,-0.437 c 1.465,-0.485 2.969,-0.808 4.484,-0.858 -1.495,0.26 -2.907,0.782 -4.235,1.435 l -0.96,0.56 c -0.158,0.094 -0.321,0.179 -0.475,0.281 l -0.449,0.325 -0.892,0.644 -0.826,0.729 c -2.178,1.956 -3.864,4.378 -5.077,6.992 -1.052,2.262 -1.758,4.663 -2.232,7.102 1.31,-2.395 2.928,-4.611 4.83,-6.521 2.019,-2.031 4.36,-3.708 6.894,-4.913 2.525,-1.22 5.285,-1.897 8.011,-1.985 -2.685,0.506 -5.203,1.572 -7.391,3.079 -2.194,1.496 -4.085,3.364 -5.608,5.46 -1.525,2.1 -2.693,4.414 -3.523,6.833 -0.39,1.185 -0.698,2.39 -0.943,3.604 0.309,0.055 0.615,0.116 0.919,0.182 0.817,-2.396 1.894,-4.702 3.256,-6.826 2.012,-3.149 4.645,-5.887 7.72,-7.915 3.063,-2.046 6.565,-3.323 10.108,-3.836 3.55,-0.519 7.136,-0.276 10.536,0.525 -3.474,-0.389 -6.989,-0.189 -10.281,0.706 -3.289,0.89 -6.347,2.463 -8.862,4.623 -1.867,1.586 -3.443,3.461 -4.708,5.513 4.248,-3.974 10.043,-5.466 15.688,-5.466 3.029,0 6.016,0.429 8.696,1.133 4.777,1.254 8.7,4.493 9.96,8.089 0.015,-0.045 0.034,-0.088 0.047,-0.133 0.6,-1.85 0.726,-3.889 0.186,-5.807 -0.529,-1.922 -1.745,-3.674 -3.346,-5.055 -1.608,-1.379 -3.547,-2.42 -5.576,-3.221 2.12,0.512 4.22,1.274 6.124,2.488 1.889,1.215 3.562,2.965 4.517,5.163 0.125,0.283 0.236,0.571 0.336,0.864 -0.02,-1.183 -0.2,-2.363 -0.584,-3.495"
             style="fill:#c49a6c;fill-opacity:1;fill-rule:nonzero;stroke:none"
             id="path7256" />
        </g>
        <g
           id="g7258"
           transform="translate(224.4707,418.0215)">
          <path
             d="M 0,0 -99.998,95.291 1.062,1.691 Z m 143.859,-75.858 c -11.831,-5.195 -25.171,-8.321 -38.826,-9.849 l -0.311,0.121 -0.567,0.306 c -0.387,0.179 -0.714,0.467 -1.063,0.702 -0.652,0.545 -1.25,1.145 -1.735,1.847 -0.994,1.377 -1.684,2.964 -2.204,4.609 -0.514,1.65 -0.873,3.36 -1.149,5.09 -0.491,3.129 -0.739,6.313 -0.949,9.524 0.929,-2.897 2.15,-5.714 3.804,-8.268 1.714,-2.655 3.908,-5.013 6.5,-6.756 l 0.974,-0.643 1.031,-0.547 0.513,-0.27 c 0.174,-0.084 0.357,-0.152 0.535,-0.226 l 1.071,-0.437 c 1.465,-0.485 2.97,-0.808 4.485,-0.857 -1.495,0.259 -2.907,0.781 -4.236,1.434 l -0.959,0.559 c -0.159,0.095 -0.322,0.18 -0.475,0.282 l -0.449,0.325 -0.892,0.643 -0.826,0.729 c -2.179,1.957 -3.864,4.379 -5.077,6.993 -1.052,2.262 -1.758,4.663 -2.233,7.103 1.31,-2.396 2.929,-4.612 4.83,-6.522 2.02,-2.031 4.361,-3.708 6.895,-4.913 2.524,-1.22 5.285,-1.897 8.011,-1.985 -2.685,0.506 -5.203,1.572 -7.391,3.079 -2.194,1.496 -4.085,3.364 -5.608,5.46 -1.526,2.097 -2.694,4.414 -3.524,6.833 -0.389,1.184 -0.697,2.389 -0.942,3.605 0.308,0.054 0.615,0.115 0.919,0.18 0.818,-2.396 1.893,-4.701 3.256,-6.825 2.011,-3.149 4.646,-5.887 7.719,-7.914 3.064,-2.047 6.566,-3.324 10.109,-3.837 3.55,-0.519 7.136,-0.277 10.536,0.525 -3.475,-0.389 -6.989,-0.188 -10.281,0.707 -3.289,0.889 -6.347,2.462 -8.863,4.622 -1.866,1.586 -3.442,3.461 -4.708,5.512 4.248,-3.973 10.043,-5.465 15.689,-5.465 3.029,0 6.015,0.429 8.696,1.133 4.776,1.254 8.699,4.493 9.96,8.089 0.015,-0.045 0.033,-0.088 0.047,-0.133 0.6,-1.852 0.725,-3.89 0.185,-5.808 -0.528,-1.921 -1.745,-3.673 -3.345,-5.054 -1.609,-1.379 -3.547,-2.42 -5.576,-3.221 2.12,0.512 4.219,1.273 6.124,2.488 1.888,1.215 3.561,2.965 4.516,5.162 0.125,0.284 0.238,0.573 0.337,0.866 -0.02,-1.184 -0.2,-2.364 -0.585,-3.496 -0.435,-1.289 -1.124,-2.504 -2.014,-3.58 -0.577,-0.7 -1.24,-1.336 -1.954,-1.922 M 95.755,-86.501 H 71.568 c -2.777,0.162 -5.526,0.376 -8.237,0.641 0.323,0.149 0.628,0.341 0.946,0.507 0.789,0.514 1.541,1.114 2.166,1.821 1.282,1.396 2.234,3.045 2.996,4.737 0.758,1.698 1.345,3.454 1.844,5.219 0.988,3.535 1.658,7.112 2.306,10.655 0.255,1.408 0.507,2.811 0.761,4.206 l 0.014,-0.007 c 0.187,0.392 1.594,1.489 4.561,2.192 1.882,0.445 8.102,1.53 13.494,-1.845 0.277,-1.507 0.547,-3.024 0.823,-4.546 0.647,-3.543 1.319,-7.12 2.306,-10.655 0.499,-1.765 1.086,-3.521 1.844,-5.219 0.762,-1.692 1.714,-3.341 2.996,-4.737 0.625,-0.707 1.376,-1.307 2.165,-1.821 0.326,-0.169 0.636,-0.366 0.968,-0.517 -2.582,-0.266 -5.173,-0.475 -7.766,-0.631 m -33.646,0.915 -0.308,-0.12 c -11.74,1.227 -22.692,3.357 -31.968,6.055 0.865,-0.198 1.737,-0.362 2.61,-0.489 -2.852,0.721 -5.623,1.795 -8.029,3.371 -1.184,0.815 -2.262,1.754 -3.15,2.833 -0.891,1.076 -1.578,2.291 -2.014,3.58 -0.385,1.132 -0.564,2.312 -0.585,3.496 0.101,-0.293 0.211,-0.582 0.336,-0.866 0.956,-2.197 2.629,-3.947 4.519,-5.162 1.903,-1.215 4.001,-1.976 6.123,-2.488 -2.03,0.801 -3.968,1.842 -5.577,3.221 -1.601,1.381 -2.817,3.133 -3.345,5.054 -0.519,1.84 -0.419,3.788 0.118,5.579 1.39,-3.452 5.213,-6.515 9.828,-7.727 2.679,-0.704 5.663,-1.132 8.69,-1.132 5.65,0 11.452,1.496 15.706,5.484 -1.267,-2.06 -2.848,-3.941 -4.719,-5.532 -2.516,-2.16 -5.573,-3.733 -8.863,-4.622 -3.292,-0.895 -6.806,-1.096 -10.28,-0.707 3.401,-0.802 6.987,-1.044 10.535,-0.525 3.543,0.513 7.045,1.79 10.11,3.837 3.072,2.027 5.707,4.765 7.718,7.914 0.317,0.493 0.616,0.998 0.898,1.512 0.022,0.041 0.046,0.082 0.069,0.125 0.858,1.566 1.573,3.214 2.162,4.91 0.011,-0.002 0.022,-0.002 0.034,-0.002 0.005,0 0.014,0 0.021,-0.002 l -0.01,-0.031 0.457,-0.101 c 0.157,-0.034 0.313,-0.062 0.469,-0.091 0.002,-10e-4 0.003,-10e-4 0.006,-0.002 -0.049,-0.23 -0.109,-0.457 -0.163,-0.685 -0.068,-0.293 -0.132,-0.588 -0.208,-0.879 -0.151,-0.575 -0.317,-1.147 -0.502,-1.714 -0.83,-2.419 -1.998,-4.736 -3.524,-6.833 -1.523,-2.096 -3.414,-3.964 -5.607,-5.46 -2.187,-1.507 -4.707,-2.573 -7.391,-3.079 2.725,0.088 5.487,0.765 8.01,1.985 2.533,1.205 4.875,2.882 6.895,4.913 2.022,2.031 3.728,4.405 5.079,6.975 0.496,0.969 0.941,1.961 1.343,2.971 l -0.009,-0.133 -0.302,-2.137 c -0.468,-2.835 -1.225,-5.639 -2.441,-8.257 -1.213,-2.614 -2.899,-5.036 -5.079,-6.993 l -0.824,-0.729 -0.892,-0.643 -0.449,-0.325 c -0.153,-0.102 -0.316,-0.187 -0.475,-0.282 l -0.96,-0.559 c -1.328,-0.653 -2.739,-1.175 -4.235,-1.434 1.514,0.049 3.02,0.372 4.484,0.857 l 1.071,0.437 c 0.178,0.074 0.363,0.142 0.534,0.226 l 0.514,0.27 1.031,0.547 0.975,0.643 c 2.592,1.743 4.786,4.101 6.499,6.756 0.96,1.483 1.77,3.056 2.47,4.679 -0.168,-1.995 -0.379,-3.976 -0.687,-5.935 -0.276,-1.73 -0.636,-3.44 -1.149,-5.09 -0.52,-1.645 -1.21,-3.232 -2.203,-4.609 -0.486,-0.702 -1.084,-1.302 -1.736,-1.847 -0.348,-0.235 -0.676,-0.523 -1.063,-0.702 z M 8.816,-70.813 c -2.355,8.239 -3.026,17.873 -2.283,27.007 0.19,-0.963 0.49,-1.911 0.903,-2.816 1.314,-2.906 3.723,-5.246 6.519,-6.772 1.402,-0.772 2.915,-1.353 4.536,-1.688 0.311,-0.065 0.629,-0.118 0.95,-0.161 l -2.861,-1.089 1.986,-0.51 c -0.057,-0.1 -0.118,-0.2 -0.173,-0.302 -0.809,-1.444 -1.359,-2.968 -1.694,-4.534 -0.676,-3.113 -0.483,-6.466 0.854,-9.361 0.66,-1.442 1.593,-2.739 2.698,-3.823 1.104,-1.088 2.368,-1.969 3.692,-2.692 0.648,-0.333 1.308,-0.631 1.977,-0.896 -7.006,2.277 -12.854,4.883 -17.104,7.637 m -1.223,33.128 c 0.384,2.851 1.386,5.649 2.706,8.278 -0.883,-1.383 -1.676,-2.836 -2.333,-4.359 1.779,8.517 4.873,15.805 9.011,19.932 l 10.584,-0.024 c -0.446,-0.329 -0.886,-0.665 -1.314,-1.018 -2.405,-1.996 -4.536,-4.354 -6.27,-7.008 -1.491,-2.286 -2.717,-4.774 -3.518,-7.487 -0.29,-0.498 -0.568,-1.001 -0.82,-1.511 -1.424,-2.899 -2.312,-5.998 -2.565,-9.171 -0.12,-1.584 -0.071,-3.188 0.218,-4.756 0.289,-1.566 0.827,-3.097 1.657,-4.45 0.49,-0.806 1.088,-1.538 1.759,-2.179 0.015,-0.014 0.026,-0.029 0.04,-0.043 -0.54,0.154 -1.074,0.335 -1.594,0.555 -2.478,1.037 -4.715,2.783 -6.091,5.14 -0.691,1.173 -1.161,2.489 -1.39,3.866 -0.234,1.377 -0.237,2.808 -0.08,4.235 m 28.16,23.809 c -1.628,-0.239 -3.215,-0.649 -4.737,-1.195 2.433,0.47 4.914,0.595 7.298,0.281 1.187,-0.188 2.356,-0.431 3.461,-0.848 1.107,-0.405 2.164,-0.911 3.149,-1.523 0.008,-0.005 0.014,-0.008 0.017,-0.012 l 1.686,-3.127 c -1.348,0.675 -2.771,1.225 -4.251,1.638 -2.208,0.61 -4.455,0.928 -6.678,0.946 -2.223,0.025 -4.411,-0.226 -6.511,-0.746 -1.846,-0.46 -3.566,-1.115 -5.109,-1.946 l -0.008,-0.004 -0.037,-0.02 c 0.076,0.113 0.168,0.218 0.246,0.33 0.337,0.483 0.692,0.954 1.058,1.417 0.156,0.198 0.306,0.4 0.468,0.594 0.533,0.641 1.088,1.267 1.675,1.863 0.831,0.841 1.72,1.629 2.654,2.364 z m 15.552,-0.036 c 0.291,-0.191 0.578,-0.388 0.857,-0.597 1.018,-0.746 1.949,-1.598 2.801,-2.524 0.308,-1.627 0.06,-3.191 -0.565,-4.661 -0.593,0.731 -1.224,1.43 -1.893,2.09 -1.894,1.87 -4.109,3.424 -6.53,4.474 -1.215,0.516 -2.477,0.894 -3.75,1.148 -0.181,0.037 -0.364,0.062 -0.543,0.092 z M 22.143,-58.709 c 0.08,0.122 0.166,0.233 0.252,0.349 3.355,-3.851 10.845,-5.535 17.501,-5.535 1.756,0 3.456,0.117 5.004,0.343 7.211,1.049 11.454,4.267 11.504,8.665 0.467,-0.158 0.803,-0.404 0.994,-0.738 0.672,-1.17 -0.198,-3.395 -0.542,-4.058 -5.286,-9.353 -17.161,-10.046 -25.724,-7.796 -5.107,1.339 -8.357,4.894 -8.925,7.71 -0.062,0.308 -0.102,0.65 -0.096,1.01 0.011,0.016 0.02,0.033 0.032,0.05 m 15.896,7.672 c 0,1.329 1.078,2.407 2.406,2.407 1.33,0 2.409,-1.078 2.409,-2.407 0,-1.33 -1.079,-2.407 -2.409,-2.407 -1.328,0 -2.406,1.077 -2.406,2.407 m 0.527,-8.521 c 3.788,0 6.857,3.071 6.857,6.857 0,2.27 -1.109,4.277 -2.81,5.525 5.466,-0.88 10.307,-3.417 10.585,-7.352 0.296,-4.209 -6.63,-5.547 -8.759,-5.856 -8.333,-1.213 -19.363,1.206 -20.527,5.757 0.632,4.423 5.434,6.821 10.744,7.553 -1.779,-1.239 -2.946,-3.296 -2.946,-5.627 0,-3.786 3.069,-6.857 6.856,-6.857 m -8.942,27.475 c 1.187,-0.187 2.355,-0.431 3.461,-0.847 1.106,-0.406 2.163,-0.912 3.147,-1.524 1.818,-1.151 3.388,-2.628 4.694,-4.304 -1.922,0.712 -3.905,1.206 -5.903,1.465 -2.522,0.326 -5.057,0.317 -7.52,-0.02 -2.464,-0.327 -4.858,-0.937 -7.153,-1.764 2.396,0.461 4.821,0.681 7.214,0.623 2.394,-0.048 4.752,-0.421 6.993,-1.078 2.24,-0.656 4.355,-1.633 6.271,-2.861 0.765,-0.493 1.486,-1.038 2.181,-1.608 -0.083,0.013 -0.167,0.024 -0.251,0.037 -2.381,1.244 -5.224,2.462 -7.171,2.81 -0.7,0.125 -0.967,-2.267 -1.689,-2.173 -4.069,0.537 -7.397,0.909 -9.763,0.401 2.935,-1.278 3.22,-2.84 3.22,-2.84 0,0 -9.337,-0.6 -9.346,-0.904 0.298,-0.306 4.793,-2.668 4.488,-3.125 -0.263,-0.393 -2.323,-1.391 -5.298,-0.836 -0.456,0.61 -0.84,1.267 -1.137,1.957 -1.124,2.602 -1.099,5.533 -0.499,8.263 0.61,2.743 1.791,5.366 3.343,7.643 0.778,1.136 1.655,2.189 2.606,3.067 0.239,0.219 0.485,0.426 0.733,0.617 0.042,0.032 0.084,0.057 0.126,0.087 0.208,0.156 0.417,0.306 0.626,0.437 0.001,10e-4 0.002,0.002 0.003,0.003 h 0.002 l 1.709,0.181 c 0.321,0.034 0.655,0.06 1.018,0.077 2.583,0.099 5.466,-0.35 8.344,-1.297 2.638,-0.888 4.911,-2.149 6.406,-3.552 0.763,-0.711 1.33,-1.41 1.737,-2.143 0.057,-0.098 0.106,-0.199 0.158,-0.298 -0.004,0.003 -0.008,0.006 -0.011,0.008 -0.062,0.052 -0.129,0.098 -0.19,0.148 -0.402,0.329 -0.817,0.641 -1.239,0.941 -0.161,0.111 -0.321,0.217 -0.482,0.324 -0.356,0.237 -0.721,0.463 -1.091,0.679 -0.158,0.092 -0.316,0.186 -0.476,0.274 -0.524,0.286 -1.055,0.555 -1.601,0.792 -1.216,0.516 -2.477,0.895 -3.751,1.148 -1.274,0.265 -2.57,0.332 -3.844,0.334 -2.554,-0.06 -5.033,-0.587 -7.364,-1.423 2.433,0.47 4.913,0.595 7.299,0.281 m 29.939,18.153 c 0.078,-0.105 0.162,-0.207 0.238,-0.313 1.299,-1.79 2.25,-3.826 2.98,-5.939 0.039,-0.423 0.054,-0.865 0.043,-1.325 -0.109,0.163 -0.217,0.326 -0.326,0.487 -0.8,1.148 -1.668,2.242 -2.607,3.272 -1.298,1.422 -2.743,2.724 -4.323,3.827 z m 6.18,-0.014 c 0.079,-0.157 0.155,-0.314 0.23,-0.474 1.06,-2.353 1.412,-4.943 1.373,-7.526 -0.121,0.169 -0.246,0.335 -0.375,0.498 -0.212,0.507 -0.432,1.011 -0.666,1.509 -1.002,2.12 -2.207,4.173 -3.722,6 z m 3.956,-13.103 c 0.052,0.957 0.071,1.916 0.045,2.878 -0.012,0.415 -0.034,0.83 -0.062,1.245 0.767,-1.886 1.36,-3.826 1.711,-5.79 0.074,-0.346 0.118,-0.697 0.156,-1.048 0.037,-0.35 0.094,-0.697 0.116,-1.047 0.035,-0.701 0.083,-1.396 0.048,-2.09 -0.041,-1.384 -0.203,-2.754 -0.559,-4.065 -0.112,-0.432 -0.247,-0.855 -0.39,-1.274 0.146,3.711 -0.069,7.693 -1.065,11.191 m 13.981,13.062 -1.215,-39.307 c -1.879,-0.088 -3.369,-0.379 -4.172,-0.568 -1.207,-0.285 -2.292,-0.655 -3.22,-1.078 0.17,0.832 0.345,1.66 0.533,2.478 l -4.085,0.686 0.008,0.103 -0.095,-0.089 -0.03,0.006 c 0.185,0.229 0.362,0.456 0.528,0.684 0.464,0.638 0.884,1.282 1.277,1.939 0.784,1.311 1.463,2.665 2.038,4.062 1.146,2.788 1.864,5.763 1.982,8.762 0.064,1.497 -0.038,2.999 -0.309,4.459 -0.274,1.457 -0.669,2.886 -1.264,4.222 -0.58,1.339 -1.274,2.616 -2.113,3.781 -0.803,1.189 -1.766,2.247 -2.736,3.27 1.658,-2.287 2.983,-4.803 3.66,-7.46 0.367,-1.318 0.527,-2.676 0.577,-4.016 0.049,-1.342 -0.062,-2.68 -0.317,-3.985 -0.431,-2.265 -1.25,-4.434 -2.342,-6.447 0.626,1.643 1.056,3.352 1.245,5.078 0.184,1.541 0.141,3.09 -0.032,4.598 -0.075,0.758 -0.233,1.499 -0.379,2.237 -0.078,0.367 -0.19,0.728 -0.283,1.09 -0.094,0.363 -0.195,0.722 -0.325,1.073 -0.748,2.25 -1.785,4.357 -3.007,6.329 -0.107,1.092 -0.272,2.179 -0.526,3.25 -0.404,1.704 -1.023,3.373 -1.926,4.88 z m 13.453,-13.062 c -0.997,-3.498 -1.212,-7.48 -1.065,-11.191 -0.144,0.419 -0.278,0.842 -0.391,1.274 -0.356,1.311 -0.518,2.681 -0.558,4.065 -0.036,0.694 0.013,1.389 0.047,2.09 0.023,0.35 0.079,0.697 0.116,1.047 0.038,0.351 0.083,0.702 0.157,1.048 0.35,1.964 0.943,3.904 1.711,5.79 -0.029,-0.415 -0.05,-0.83 -0.063,-1.245 -0.026,-0.962 -0.007,-1.921 0.046,-2.878 m 2.504,13.026 c -0.879,-1.488 -1.486,-3.13 -1.884,-4.807 -0.253,-1.071 -0.418,-2.158 -0.526,-3.25 -1.222,-1.972 -2.259,-4.079 -3.007,-6.329 -0.13,-0.351 -0.231,-0.71 -0.324,-1.073 -0.093,-0.362 -0.205,-0.723 -0.284,-1.09 -0.146,-0.738 -0.305,-1.479 -0.378,-2.237 -0.175,-1.508 -0.217,-3.057 -0.033,-4.598 0.188,-1.726 0.619,-3.435 1.246,-5.077 -1.093,2.012 -1.912,4.181 -2.343,6.446 -0.255,1.305 -0.366,2.643 -0.317,3.985 0.05,1.34 0.21,2.698 0.577,4.016 0.678,2.657 2.002,5.173 3.661,7.46 -0.972,-1.023 -1.934,-2.081 -2.736,-3.27 -0.84,-1.165 -1.534,-2.442 -2.114,-3.781 -0.595,-1.336 -0.989,-2.765 -1.264,-4.222 -0.272,-1.46 -0.373,-2.962 -0.307,-4.459 0.1,-2.581 0.648,-5.143 1.529,-7.585 0.142,-0.396 0.292,-0.789 0.452,-1.177 0.574,-1.397 1.253,-2.751 2.037,-4.062 0.154,-0.259 0.317,-0.514 0.48,-0.768 -0.047,0.013 -0.095,0.022 -0.144,0.038 -0.446,0.166 -0.922,0.53 -1.338,1.107 -0.406,0.572 -0.762,1.317 -1.023,2.142 -0.281,0.828 -0.466,1.729 -0.661,2.68 -0.593,-0.767 -1.075,-1.612 -1.468,-2.546 -0.372,-0.935 -0.655,-1.97 -0.686,-3.124 -0.059,-1.151 0.209,-2.437 0.835,-3.672 0.196,-0.373 0.434,-0.733 0.697,-1.077 -1.791,0.62 -3.561,0.92 -5.187,1.032 l -1.214,39.333 z m 1.413,-0.003 3.12,-0.008 c -1.477,-1.802 -2.659,-3.822 -3.644,-5.905 -0.234,-0.498 -0.454,-1.002 -0.666,-1.509 -0.129,-0.163 -0.253,-0.329 -0.374,-0.498 -0.039,2.583 0.312,5.173 1.373,7.526 0.06,0.133 0.126,0.263 0.191,0.394 m 5.979,-0.219 c 0.051,0.07 0.106,0.136 0.159,0.204 l 3.895,-0.008 c -1.51,-1.076 -2.894,-2.332 -4.143,-3.701 -0.939,-1.03 -1.807,-2.124 -2.607,-3.272 -0.11,-0.161 -0.217,-0.324 -0.325,-0.487 -0.012,0.46 0.003,0.902 0.043,1.325 0.729,2.113 1.68,4.149 2.978,5.939 m 4.839,-2.79 c 0.853,0.926 1.783,1.778 2.801,2.524 0.209,0.156 0.425,0.305 0.641,0.452 l 8.876,-0.02 c -1.13,-0.25 -2.248,-0.594 -3.33,-1.053 -2.42,-1.05 -4.637,-2.604 -6.53,-4.474 -0.669,-0.66 -1.299,-1.359 -1.893,-2.09 -0.625,1.47 -0.872,3.034 -0.565,4.661 m 16.65,2.243 c 2.383,0.314 4.865,0.189 7.297,-0.281 -1.127,0.404 -2.289,0.734 -3.477,0.976 l 4.665,-0.011 c 0.822,-0.665 1.608,-1.373 2.349,-2.122 1.375,-1.396 2.604,-2.923 3.669,-4.545 -1.599,0.86 -3.29,1.479 -5.013,1.908 -2.086,0.517 -4.231,0.758 -6.404,0.733 -2.172,-0.017 -4.375,-0.323 -6.571,-0.93 -1.815,-0.506 -3.633,-1.244 -5.376,-2.255 l 2.232,4.143 c 0.006,0.005 0.011,0.008 0.018,0.013 0.986,0.612 2.042,1.118 3.149,1.523 1.105,0.417 2.274,0.66 3.462,0.848 m 17.293,0.664 c 6.182,-5.996 10.131,-11.755 12.27,-17.508 -0.407,0.76 -0.842,1.504 -1.304,2.227 1.322,-2.629 2.324,-5.427 2.706,-8.278 0.159,-1.427 0.154,-2.858 -0.079,-4.235 -0.23,-1.377 -0.699,-2.693 -1.39,-3.866 -1.377,-2.357 -3.613,-4.103 -6.091,-5.14 -0.629,-0.267 -1.278,-0.486 -1.934,-0.654 0.044,0.045 0.089,0.095 0.134,0.142 0.672,0.641 1.269,1.373 1.76,2.179 0.83,1.353 1.368,2.884 1.656,4.45 0.289,1.568 0.339,3.172 0.218,4.756 -0.252,3.173 -1.141,6.272 -2.564,9.171 -0.254,0.51 -0.531,1.013 -0.821,1.511 -0.801,2.713 -2.026,5.201 -3.516,7.487 -1.736,2.654 -3.867,5.012 -6.272,7.008 -0.316,0.261 -0.64,0.516 -0.966,0.764 z m -1.476,-35.669 c -0.306,0.457 4.189,2.819 4.487,3.125 -0.008,0.304 -9.346,0.904 -9.346,0.904 0,0 0.286,1.562 3.22,2.84 -2.366,0.508 -5.694,0.136 -9.764,-0.401 -0.72,-0.094 -0.988,2.298 -1.688,2.173 -1.946,-0.348 -4.79,-1.566 -7.172,-2.81 -0.083,-0.013 -0.167,-0.024 -0.25,-0.037 0.694,0.57 1.416,1.115 2.182,1.608 1.915,1.228 4.03,2.205 6.27,2.861 2.24,0.657 4.599,1.03 6.993,1.078 2.393,0.058 4.819,-0.162 7.214,-0.623 -2.293,0.827 -4.689,1.437 -7.153,1.764 -2.463,0.337 -4.998,0.346 -7.521,0.02 -1.997,-0.259 -3.98,-0.753 -5.903,-1.465 0.617,0.79 1.289,1.537 2.021,2.224 0.821,0.771 1.712,1.471 2.673,2.08 0.985,0.612 2.042,1.118 3.148,1.524 1.106,0.416 2.275,0.66 3.462,0.847 2.384,0.314 4.865,0.189 7.298,-0.281 -2.331,0.836 -4.81,1.363 -7.365,1.423 -1.273,-0.002 -2.569,-0.069 -3.843,-0.334 -1.274,-0.253 -2.536,-0.632 -3.751,-1.148 -1.839,-0.797 -3.559,-1.887 -5.109,-3.183 0.086,0.179 0.179,0.356 0.28,0.53 0.427,0.769 1.03,1.509 1.813,2.239 1.561,1.464 3.91,2.751 6.559,3.643 2.648,0.872 5.624,1.429 8.494,1.319 0.351,-0.017 0.7,-0.042 1.047,-0.079 0.852,-0.315 1.818,-0.948 2.687,-1.747 0.895,-0.824 1.719,-1.806 2.46,-2.862 0.048,-0.069 0.1,-0.135 0.147,-0.205 1.554,-2.277 2.733,-4.9 3.343,-7.643 0.6,-2.73 0.626,-5.661 -0.498,-8.263 -0.298,-0.69 -0.681,-1.347 -1.137,-1.957 -2.976,-0.555 -5.037,0.443 -5.298,0.836 M 121.93,-63.552 c 1.549,-0.226 3.248,-0.343 5.005,-0.343 6.746,0 14.347,1.729 17.634,5.69 0.044,-0.055 0.084,-0.116 0.127,-0.175 0.054,-0.5 0.012,-0.976 -0.072,-1.389 -0.569,-2.816 -3.817,-6.369 -8.925,-7.71 -8.563,-2.25 -20.437,-1.557 -25.71,7.77 -0.336,0.644 -1.12,2.638 -0.667,3.849 0.379,0.179 0.75,0.373 1.12,0.57 0.3,-4.191 4.5,-7.246 11.488,-8.262 m 4.455,14.922 c 1.33,0 2.407,-1.078 2.407,-2.407 0,-1.33 -1.077,-2.407 -2.407,-2.407 -1.329,0 -2.408,1.077 -2.408,2.407 0,1.329 1.079,2.407 2.408,2.407 m -4.977,-4.071 c 0,-3.786 3.069,-6.857 6.857,-6.857 3.786,0 6.856,3.071 6.856,6.857 0,2.329 -1.165,4.385 -2.941,5.623 5.308,-0.733 10.106,-3.127 10.739,-7.549 -1.164,-4.552 -12.197,-6.97 -20.528,-5.757 -2.129,0.31 -9.054,1.649 -8.757,5.856 0.037,0.527 0.16,1.027 0.351,1.504 1.272,0.965 2.471,2.046 3.579,3.247 0.231,0.251 0.448,0.517 0.669,0.778 1.73,0.86 3.808,1.472 5.984,1.823 -1.7,-1.248 -2.809,-3.255 -2.809,-5.525 m 38.507,6.733 c -0.797,-8.406 -4.563,-17.187 -10.081,-27.011 -0.782,-0.411 -1.572,-0.811 -2.371,-1.202 0.825,0.934 1.533,1.989 2.06,3.142 1.338,2.895 1.531,6.248 0.855,9.361 -0.335,1.566 -0.886,3.09 -1.693,4.534 -0.066,0.12 -0.137,0.239 -0.208,0.357 l 1.774,0.455 -2.798,1.063 c 0.386,0.045 0.763,0.108 1.133,0.187 1.621,0.335 3.133,0.916 4.536,1.688 2.796,1.526 5.205,3.866 6.52,6.772 0.097,0.216 0.187,0.434 0.273,0.654 m 3.324,-100.95 c 1.06,1.222 1.427,2.33 2.476,3.97 0.023,0.036 0.043,0.07 0.067,0.107 4.822,8.841 9.056,20.168 12.109,31.967 l -15.633,-6.804 -14.972,-5.776 31.617,17.5 c 0.201,0.964 0.41,1.987 0.62,3.049 0.238,1.2 0.479,2.455 0.716,3.736 1.141,6.142 2.208,12.94 2.49,17.846 -6.282,-2.771 -12.554,-5.559 -18.829,-8.349 l -1.852,-0.824 c 2.628,1.683 5.556,3.81 8.456,6.028 3.925,3.004 7.795,6.174 10.785,8.627 0.114,1.988 0.19,3.99 0.223,6.005 0.011,0.732 0.018,1.462 0.018,2.196 0,21.661 -3.638,41.854 -11.203,59.179 l -0.426,-0.563 c -2.853,2.158 -6.206,3.857 -9.661,5.274 -3.462,1.427 -7.044,2.621 -10.67,3.677 -7.257,2.107 -14.698,3.668 -22.189,4.884 -7.494,1.216 -15.056,2.072 -22.646,2.5 -7.582,0.394 -15.229,0.48 -22.771,-0.639 7.504,1.367 15.181,1.534 22.801,1.388 7.631,-0.18 15.253,-0.789 22.832,-1.765 7.578,-0.977 15.125,-2.3 22.566,-4.197 3.719,-0.953 7.412,-2.048 11.041,-3.406 2.51,-0.941 4.991,-2.018 7.38,-3.362 -4.396,9.115 -9.936,17.37 -16.681,24.534 -0.852,0.031 -1.961,0.103 -3.241,0.202 -0.169,0.013 -0.342,0.027 -0.517,0.041 -7.497,0.599 -20.332,2.015 -25.219,1.84 -2.242,-0.166 -4.07,-0.263 -5.642,-0.318 4.974,0.276 9.938,0.561 14.824,0.924 5.865,0.209 11.681,0.176 17.472,-0.033 C 132.496,40.667 110.074,51.681 85.516,51.681 53.921,51.681 25.859,33.457 8.159,5.257 30.639,11.942 53.168,16.391 76.063,18.778 52.981,15.076 28.704,8.213 7.389,1.883 7.318,1.862 7.248,1.842 7.18,1.821 6.952,1.753 6.718,1.685 6.491,1.618 4.896,-0.923 3.167,-4.617 1.746,-7.313 l 1.796,0.025 34.497,5.902 C 36.635,-2.286 0.48,-9.432 0.48,-9.432 -8.676,-27.277 -12.384,-45.114 -12.384,-67.64 c 0,-1.007 0.023,-2.009 0.043,-3.011 0.091,-4.369 0.372,-8.683 0.853,-12.92 0.11,-0.981 53.168,-14.556 53.299,-15.529 0.137,-1.027 -52.649,10.549 -52.489,9.531 1.513,-9.6 4.006,-18.78 7.336,-27.393 0.063,-0.16 0.117,-0.321 0.18,-0.48 3.74,-0.855 7.807,-2.258 11.573,-2.921 8.032,-1.414 23.662,-4.296 35.948,-5.012 h 0.014 c 0.082,-0.067 0.168,-0.133 0.248,-0.201 -14.416,-0.746 -43.26,3.565 -47,4.421 3.542,-9.053 9.322,-21.235 14.584,-28.834 7.818,-1.918 15.566,-2.84 23.5,-3.293 37.005,-1.714 73.568,-5.826 108.863,3.086 -34.908,-9.472 -72.07,-7.8 -108.252,-6.125 -7.931,0.453 -15.752,1.919 -23.569,3.837 4.411,-6.37 10.36,-15.386 15.791,-20.506 0.845,-1.375 2.995,-3.898 5.068,-5.559 15.351,-12.305 33.776,-19.477 53.594,-19.477 20.805,0 40.075,7.903 55.864,21.353 -33.517,-7.567 -68.921,-7.678 -102.371,-0.04 33.672,-7.393 68.26,-4.146 102.371,3.554 8.853,7.54 12.634,12.74 18.084,22.455 0.669,1.194 1.359,2.443 2.091,3.786 m 58.313,-71.267 -0.502,12.959 12.919,6.517 1.258,-13.604 z m -13.573,24.316 12.919,6.517 1.257,-13.606 -13.676,-5.87 z m -12.571,-1.603 -0.502,12.96 12.92,6.516 1.257,-13.605 z m -13.573,24.316 12.919,6.517 1.258,-13.605 -13.675,-5.871 z m -13.071,11.357 12.919,6.517 1.257,-13.606 -13.674,-5.87 z m 89.1,-48.912 -0.599,0.447 c -22.039,16.443 -49.911,39.458 -83.151,68.647 l -2.24,-4.108 c -0.86,-1.577 -1.751,-3.123 -2.667,-4.645 l 0.662,-7.161 -7.75,-3.327 c -2.756,-3.641 -5.693,-7.078 -8.806,-10.3 0.304,-0.259 0.608,-0.518 0.912,-0.777 l 1.549,-1.319 c 14.89,-12.677 29.142,-24.657 41.991,-35.288 10.862,-8.988 20.15,-16.532 26.859,-21.817 10.527,-8.294 11.511,-8.54 12.161,-8.702 0.76,-0.191 1.571,-0.283 2.415,-0.283 4.189,0 9.215,2.257 13.005,6 3.335,3.294 8.528,10.52 5.832,21.906 z m -249.385,35.953 -13.676,5.87 1.258,13.606 12.919,-6.517 z m -13.072,-11.357 -13.677,5.871 1.258,13.605 12.92,-6.517 z m -13.072,-11.357 -13.675,5.871 1.258,13.605 12.919,-6.516 z m -12.787,-4.003 -0.284,-7.353 -12.403,5.324 -1.272,0.546 1.257,13.606 12.92,-6.517 z m -13.357,-18.71 -13.673,5.872 1.257,13.604 12.918,-6.517 z m 54.481,61.454 -2.797,1.2 0.27,2.91 -4.57,8.268 c -0.675,1.057 -1.28,2.074 -1.843,3.071 -32.405,-28.403 -59.632,-50.852 -81.253,-66.982 l -0.6,-0.447 -0.172,-0.727 c -2.697,-11.386 2.496,-18.612 5.831,-21.906 3.79,-3.744 8.818,-6 13.006,-6 0.845,0 1.655,0.092 2.414,0.283 0.651,0.162 1.634,0.408 12.162,8.702 6.708,5.285 15.996,12.829 26.859,21.817 12.669,10.483 26.705,22.278 41.369,34.758 l -5.043,6.698 c 0,0 -3.008,4.513 -5.633,8.355 M -93.334,64.533 c -4.891,4.979 -9.15,9.318 -12.687,12.902 l -0.299,0.302 -0.155,0.395 c -9.495,24.31 -5.593,43.734 -5.421,44.549 l 0.763,3.647 2.68,-2.589 C -107.648,122.962 -57.258,74.313 8.195,12.737 7.398,11.604 6.624,10.449 5.861,9.282 c -56.899,53.522 -102.507,97.366 -114.242,108.671 -0.618,-6.66 -0.869,-21.165 5.588,-37.931 3.479,-3.526 7.641,-7.763 12.395,-12.605 19.67,-20.029 49.168,-50.063 82.6,-83.009 -0.192,-0.443 -0.356,-0.885 -0.541,-1.327 -0.388,-0.932 -0.784,-1.864 -1.138,-2.796 -33.953,33.436 -63.939,63.966 -83.857,84.248 m 377.552,13.599 -0.153,-0.395 -0.298,-0.302 c -3.54,-3.585 -7.801,-7.926 -12.693,-12.906 -21.034,-21.417 -53.294,-54.263 -89.597,-89.89 -0.425,1.5 -0.879,2.979 -1.359,4.433 35.656,35.024 67.292,67.236 88.02,88.341 4.756,4.843 8.919,9.082 12.399,12.609 6.457,16.766 6.205,31.271 5.588,37.931 -12.01,-11.569 -59.495,-57.216 -118.25,-112.437 -0.762,1.278 -1.499,2.472 -2.201,3.578 67.33,63.289 119.702,113.853 120.522,114.645 l 2.68,2.589 0.765,-3.647 c 0.17,-0.815 4.073,-20.239 -5.423,-44.549 m -6.477,17.159 -13.372,-12.743 0.002,0.002 13.756,12.741 L 178.129,0 173.231,-4.3 c -0.321,0.645 -0.642,1.279 -0.963,1.903 z M -16.371,-58.877 c -0.088,-2.819 -0.129,-5.731 -0.129,-8.763 0,-1.257 0.021,-2.509 0.053,-3.761 -13.778,-9.446 -33.283,-19.27 -41.082,-23.08 l 2.797,21.28 c 12.334,2.582 25.623,7.597 38.361,14.324 m 2.428,-35.911 c -1.105,5.761 -1.86,11.622 -2.246,17.571 -19.683,-18.705 -45.639,-37.911 -71.371,-56.133 l 36.419,-8.711 c 4.065,4.766 22.512,26.598 37.198,47.273 m 130.736,-120.694 c 3.572,-3.579 3.852,-6.236 2.107,-10.677 -9.266,-23.589 -18.187,-47.315 -27.687,-72.194 -1.38,2.543 -2.404,4.015 -3.027,5.641 -8.638,22.574 -17.139,45.201 -25.896,67.729 -1.425,3.664 -1.132,5.872 1.814,8.798 4.546,4.515 7.978,9.6 10.278,14.994 -5.304,0.793 -10.506,2.094 -15.581,3.862 -3.42,-7.325 -10.438,-11.982 -18.25,-15.537 16.67,-43.597 33.037,-86.406 50.237,-131.39 17.236,45.068 33.67,88.032 50.057,130.875 -9.54,6.405 -15.677,12.403 -18.774,18.625 -5.013,-2.205 -10.168,-3.935 -15.429,-5.159 2.173,-5.661 5.562,-10.97 10.151,-15.567 m -199.048,10.884 c 6.547,4.884 13.622,10.363 21.192,16.405 -10.395,-1.64 -20.947,-3.289 -31.768,-4.993 6.757,8.39 12.511,15.569 18.302,22.716 6.74,8.319 13.529,16.6 20.261,24.926 l -17.305,4.138 c -13.046,-16.1 -26.154,-32.153 -39.212,-48.244 -6.572,-8.099 -13.077,-16.251 -20.932,-26.019 15.891,2.542 31.533,5.043 47.03,7.521 l 0.5,2.109 z m 356.8,223.525 c -17.449,-21.49 -33.501,-41.474 -49.952,-61.124 -1.375,-1.642 -5.628,-1.913 -8.217,-1.341 -11.482,2.538 -22.829,0.503 -32.223,-4.713 l 2.11,-18.266 c 6.005,5.872 14.361,8.971 22.849,7.56 6.056,-1.006 11.817,-3.786 18.094,-5.894 28.148,34.676 56.46,69.553 86.253,106.255 -23.709,-3.79 -46.859,-7.49 -69.72,-11.144 -6.018,-6.082 -12.398,-12.51 -19.08,-19.208 16.166,2.598 32.635,5.155 49.886,7.875 M 89.417,121.285 c 0.226,0.586 0.788,1.042 1.849,2.394 6.355,-16.49 12.461,-32.285 18.527,-48.096 3.059,-7.975 5.77,-16.097 9.175,-23.92 0.495,-1.138 0.826,-2.151 0.986,-3.097 6.529,-2.83 12.81,-6.465 18.74,-10.859 0.676,0.521 1.366,1.045 2.079,1.575 C 124.396,82.1 107.974,125.034 90.795,169.945 74.313,126.855 58.518,85.565 42.809,44.496 c 6.606,3.698 13.447,6.492 20.481,8.378 8.506,22.878 17.345,45.635 26.127,68.411 M -15.232,-43.526 c -6.457,1.36 -13.318,1.335 -20.187,-0.212 -2.354,-0.53 -6.248,-0.132 -7.538,1.414 -16.424,19.692 -32.503,39.673 -49.934,61.137 11.584,-1.75 21.468,-3.186 31.332,-4.745 4.601,-0.727 9.204,-1.448 13.804,-2.174 -6.647,6.666 -12.992,13.059 -18.972,19.105 -21.378,3.415 -42.888,6.852 -64.811,10.355 2.865,-3.701 4.429,-5.808 6.082,-7.844 24.822,-30.574 49.79,-61.032 74.358,-91.809 4.285,-5.367 7.06,-7.429 13.994,-3.416 3.98,2.303 8.322,3.373 12.646,3.378 2.783,1.328 5.554,2.738 8.292,4.234 0.201,3.675 0.512,7.179 0.934,10.577 m 10.709,-83.563 c -0.331,0.861 -0.668,1.74 -1.032,2.666 l -2.037,7.065 c -0.08,0.213 -0.154,0.427 -0.233,0.64 -0.62,1.672 -1.208,3.357 -1.762,5.052 -4.438,-2.741 -9.524,-4.117 -14.822,-4.035 -4.077,-5.255 -8.03,-10.2 -11.529,-14.506 0.24,-0.049 0.486,-0.104 0.74,-0.168 10.908,-2.692 21.559,-1.388 30.675,3.286 m 317.713,-88.523 c -17.188,2.739 -34.113,5.436 -50.913,8.113 l -0.345,1.46 -1.933,1.441 c -6.796,5.07 -14.155,10.775 -22.055,17.091 11.652,-1.823 23.483,-3.63 36.508,-5.645 -14.578,17.996 -28.081,34.673 -41.593,51.341 -2.772,3.419 -5.192,7.279 -8.526,10.023 -1.738,1.432 -5.264,1.61 -7.725,1.104 -14.459,-2.97 -27.875,0.412 -37.879,8.075 1.468,4.485 2.785,9.122 3.909,13.802 l 0.851,4.015 c 0.845,-1.126 1.771,-2.184 2.788,-3.146 8.482,-8.035 22.282,-10.037 32.607,-4.41 4.677,2.549 8.214,3.857 12.43,-1.437 25.14,-31.56 50.611,-62.857 75.963,-94.247 1.516,-1.877 2.97,-3.803 5.913,-7.58"
             style="fill:#000000;fill-opacity:1;fill-rule:nonzero;stroke:none"
             id="path7260" />
        </g>
      </g>
    </g>
  </g>
</svg>
